<svg xmlns="http://www.w3.org/2000/svg" xmlns:xlink="http://www.w3.org/1999/xlink"><symbol id="icon-arrow-left" viewBox="0 0 30 11"><g fill="none"><path d="M30 5.5H1m0 0L6.486 10M1 5.5 6.486 1" stroke="#A87B62"/></g></symbol><symbol id="icon-arrow-right" viewBox="0 0 30 11"><g fill="none"><path d="M0 5.5h29m0 0L23.514 1M29 5.5 23.514 10" stroke="#A87B62"/></g></symbol><symbol id="icon-cart" viewBox="0 0 20 18"><g fill="none"><path d="M14 5a4 4 0 1 1-8 0M1 1h18v16H1V1Z" stroke="#1D1613" stroke-width="2" stroke-linecap="round" stroke-linejoin="round"/></g></symbol><symbol id="icon-menu-burger" viewBox="0 0 25 18"><g fill="none"><path d="M0 1h25M0 9h25M0 17h25" stroke="#1D1613" stroke-width="2"/></g></symbol><symbol id="icon-search" viewBox="0 0 14 14"><g fill="none"><path d="M11.048 10.074 14 13.024l-.975.976-2.951-2.952A6.205 6.205 0 0 1 0 6.202 6.205 6.205 0 0 1 6.203 0a6.205 6.205 0 0 1 4.845 10.074Zm-1.382-.512a4.808 4.808 0 0 0 1.36-3.36 4.823 4.823 0 0 0-4.823-4.824 4.822 4.822 0 0 0-4.825 4.825 4.823 4.823 0 0 0 4.825 4.824 4.808 4.808 0 0 0 3.36-1.361l.103-.104Z" fill="#000"/></g></symbol><symbol id="logo-mobile" viewBox="0 0 52 52"><g fill="none"><path fill-rule="evenodd" clip-rule="evenodd" d="M7.978 7.973 26 .508l18.022 7.465L51.489 26l-7.467 18.027L26 51.492 7.978 44.027.511 26 7.978 7.973ZM26 0l18.385 7.615L52 26l-7.615 18.385L26 52 7.615 44.385 0 26 7.615 7.615 26 0Zm-3.492 20.813c-.488-.101-1.09-.152-1.804-.152-1.169 0-2.224.225-3.166.675-.93.45-1.662 1.085-2.195 1.906-.533.81-.8 1.742-.8 2.8 0 1.09.26 2.057.783 2.9.522.843 1.248 1.501 2.178 1.973.942.461 2.008.692 3.2.692.669 0 1.259-.057 1.77-.169a7.66 7.66 0 0 0 1.667-.59.5.5 0 0 0 .136-.118c.023-.034.04-.118.051-.253l.17-1.855c0-.034-.04-.051-.119-.051-.056 0-.085.011-.085.034-.306.922-.748 1.607-1.327 2.057-.579.45-1.333.675-2.263.675a4.477 4.477 0 0 1-2.434-.709 5.191 5.191 0 0 1-1.77-1.922 5.713 5.713 0 0 1-.647-2.698c0-1.024.199-1.918.596-2.682a4.228 4.228 0 0 1 1.685-1.788c.726-.416 1.566-.624 2.518-.624 1.816 0 2.984.94 3.506 2.817.012.034.046.05.102.05.068-.01.102-.033.102-.067l-.204-2.007a2.285 2.285 0 0 0-.05-.253c-.012-.034-.058-.073-.137-.118a5.876 5.876 0 0 0-1.463-.523Zm15.206 10.473c0-.067-.017-.101-.051-.101-.431 0-.749-.028-.953-.084-.204-.056-.346-.163-.425-.32-.069-.17-.103-.422-.103-.76v-7.808c0-.337.034-.585.102-.742.08-.158.222-.264.426-.32.204-.068.522-.102.953-.102.034 0 .051-.034.051-.101s-.017-.101-.051-.101l-.834.017c-.476.022-.868.033-1.174.033-.34 0-.76-.01-1.26-.033l-.8-.017c-.033 0-.05.034-.05.101s.017.101.05.101c.443 0 .767.034.97.101.205.068.341.186.41.355.078.157.118.404.118.742v3.474h-6.535v-3.474c0-.338.034-.585.102-.742a.676.676 0 0 1 .426-.355c.215-.067.539-.1.97-.1.022 0 .034-.035.034-.102 0-.067-.012-.101-.034-.101l-.817.017c-.5.022-.913.033-1.242.033-.284 0-.664-.01-1.14-.033l-.869-.017c-.022 0-.034.034-.034.101s.012.101.034.101c.432 0 .75.034.954.101.204.057.34.163.408.32.08.158.12.406.12.743v7.808c0 .338-.04.59-.12.76-.068.157-.21.264-.426.32-.204.056-.521.084-.953.084-.022 0-.034.034-.034.101 0 .068.012.101.034.101.363 0 .647-.005.851-.017l1.175-.016 1.225.017c.204.01.482.016.834.016.022 0 .034-.033.034-.1 0-.068-.012-.102-.034-.102-.443 0-.766-.028-.97-.084-.204-.056-.346-.163-.426-.32-.068-.17-.102-.422-.102-.76v-3.946h6.535v3.946c0 .338-.04.59-.119.76-.068.157-.204.264-.408.32-.205.056-.528.084-.97.084-.034 0-.051.034-.051.101 0 .068.017.101.05.101.341 0 .608-.005.8-.017l1.26-.016 1.174.017c.204.01.482.016.834.016.034 0 .051-.033.051-.1Z" fill="#A87B62"/></g></symbol><symbol id="logo" viewBox="0 0 66 66"><g fill="none"><path fill-rule="evenodd" clip-rule="evenodd" d="M10.126 10.12 33 .643l22.874 9.475L65.35 33l-9.477 22.88L33 65.357 10.126 55.88.65 33l9.477-22.88ZM33 0l23.334 9.665L66 33l-9.666 23.334L33 66 9.665 56.334 0 33 9.665 9.665 33 0Zm-4.433 26.417c-.619-.129-1.382-.193-2.29-.193-1.483 0-2.822.285-4.017.856-1.18.571-2.11 1.377-2.786 2.419-.677 1.027-1.016 2.212-1.016 3.553 0 1.385.332 2.612.994 3.682.662 1.07 1.584 1.905 2.765 2.505 1.195.585 2.549.877 4.06.877.85 0 1.599-.071 2.247-.214.662-.143 1.368-.392 2.117-.75a.633.633 0 0 0 .173-.149c.028-.043.05-.15.064-.321l.216-2.355c0-.042-.05-.064-.15-.064-.073 0-.109.014-.109.043-.389 1.17-.95 2.04-1.685 2.611-.734.571-1.692.857-2.872.857-1.11 0-2.139-.3-3.09-.9-.935-.599-1.684-1.412-2.246-2.44-.547-1.041-.82-2.183-.82-3.424 0-1.3.252-2.434.756-3.404.504-.985 1.216-1.74 2.138-2.269.922-.528 1.987-.792 3.197-.792 2.304 0 3.787 1.192 4.45 3.575.014.043.057.064.129.064.086-.014.13-.043.13-.086l-.26-2.547a2.893 2.893 0 0 0-.064-.32c-.015-.044-.072-.094-.173-.15a7.457 7.457 0 0 0-1.858-.664Zm19.3 13.292c0-.085-.02-.128-.064-.128-.547 0-.95-.036-1.21-.107-.259-.071-.439-.207-.54-.407-.086-.214-.13-.535-.13-.963v-9.91c0-.429.044-.743.13-.942.101-.2.281-.336.54-.407.26-.086.663-.129 1.21-.129.043 0 .065-.043.065-.128 0-.086-.022-.129-.065-.129l-1.058.022c-.605.028-1.102.043-1.49.043-.433 0-.966-.015-1.6-.043l-1.014-.022c-.044 0-.065.043-.065.129 0 .085.021.128.065.128.561 0 .972.043 1.23.129.26.085.433.235.52.45.1.2.15.513.15.941v4.41h-8.294v-4.41c0-.428.043-.742.13-.942.1-.214.28-.364.54-.45.273-.085.684-.128 1.23-.128.03 0 .044-.043.044-.128 0-.086-.014-.129-.043-.129l-1.037.022c-.634.028-1.16.043-1.577.043-.36 0-.842-.015-1.447-.043l-1.102-.022c-.028 0-.043.043-.043.129 0 .085.015.128.043.128.548 0 .95.043 1.21.129.26.071.432.207.518.407.101.2.152.513.152.941v9.911c0 .428-.05.75-.152.963-.086.2-.266.336-.54.407-.259.071-.662.107-1.21.107-.028 0-.042.043-.042.128 0 .086.014.129.043.129.46 0 .82-.007 1.08-.022l1.49-.021 1.555.021c.26.015.612.022 1.059.022.029 0 .043-.043.043-.129 0-.085-.014-.128-.043-.128-.562 0-.972-.036-1.231-.107-.26-.071-.44-.207-.54-.407-.087-.214-.13-.535-.13-.963v-5.009h8.294v5.009c0 .428-.05.75-.15.963-.087.2-.26.336-.52.407-.258.071-.669.107-1.23.107-.044 0-.065.043-.065.128 0 .086.021.129.065.129.432 0 .77-.007 1.015-.022l1.598-.021 1.49.021c.26.015.613.022 1.059.022.043 0 .065-.043.065-.129Z" fill="#A87B62"/></g></symbol></svg>